<?xml version="1.0" standalone="no"?><!DOCTYPE svg PUBLIC "-//W3C//DTD SVG 1.1//EN" "http://www.w3.org/Graphics/SVG/1.1/DTD/svg11.dtd"><svg t="1613650629225" class="icon" viewBox="0 0 1024 1024" version="1.1" xmlns="http://www.w3.org/2000/svg" p-id="5770" width="32" height="32" xmlns:xlink="http://www.w3.org/1999/xlink"><defs><style type="text/css"></style></defs><path d="M427.05 469.54H128.58c-23.55 0-42.64-19.09-42.64-42.64V128.43c0-23.55 19.09-42.64 42.64-42.64h298.47c23.55 0 42.64 19.09 42.64 42.64V426.9c0 23.55-19.09 42.64-42.64 42.64z m-255.84-85.28h213.2v-213.2h-213.2v213.2zM427.05 938.57H128.58c-23.55 0-42.64-19.09-42.64-42.64V597.46c0-23.55 19.09-42.64 42.64-42.64h298.47c23.55 0 42.64 19.09 42.64 42.64v298.47c0 23.55-19.09 42.64-42.64 42.64z m-255.84-85.28h213.2V640.1h-213.2v213.19zM896.08 469.54H597.61c-23.55 0-42.64-19.09-42.64-42.64V128.43c0-23.55 19.09-42.64 42.64-42.64h298.47c23.55 0 42.64 19.09 42.64 42.64V426.9c0 23.55-19.09 42.64-42.64 42.64z m-255.83-85.28h213.2v-213.2h-213.2v213.2zM896.08 938.57H597.61c-23.55 0-42.64-19.09-42.64-42.64V597.46c0-23.55 19.09-42.64 42.64-42.64h298.47c23.55 0 42.64 19.09 42.64 42.64v298.47c0 23.55-19.09 42.64-42.64 42.64z m-255.83-85.28h213.2V640.1h-213.2v213.19z" fill="#1A1A1A" p-id="5771"></path></svg>